<svg width="24" height="24" viewBox="0 0 24 24" fill="none" xmlns="http://www.w3.org/2000/svg">
<g clip-path="url(#clip0_22_12)">
<path fill-rule="evenodd" clip-rule="evenodd" d="M7 2C4.2 2 2 4.2 2 7V17C2 19.8 4.2 22 7 22H17C19.8 22 22 19.8 22 17V7C22 4.2 19.8 2 17 2H7ZM18 11.5C18 14 15.3 16 12 16C11.4 16 10.8 15.9 10.2 15.8L7.3 17.7L7.8 14.7C6.7 13.9 6 12.8 6 11.5C6 9 8.7 7 12 7C15.3 7 18 9 18 11.5Z" fill="#2E2E2E"/>
</g>
<defs>
<clipPath id="clip0_22_12">
<rect width="20" height="20" fill="white" transform="translate(2 2)"/>
</clipPath>
</defs>
</svg>
