<svg width="24" height="24" viewBox="0 0 24 24" fill="none" xmlns="http://www.w3.org/2000/svg">
<path d="M15.2 12C15.2 12.6329 15.0123 13.2516 14.6607 13.7778C14.3091 14.304 13.8093 14.7142 13.2246 14.9564C12.6399 15.1986 11.9964 15.262 11.3757 15.1385C10.755 15.015 10.1848 14.7102 9.73726 14.2627C9.28973 13.8152 8.98496 13.245 8.86149 12.6243C8.73801 12.0035 8.80138 11.3601 9.04359 10.7754C9.28579 10.1907 9.69594 9.69092 10.2222 9.3393C10.7484 8.98768 11.3671 8.8 12 8.8C12.8484 8.80097 13.6618 9.13842 14.2617 9.73833C14.8616 10.3382 15.199 11.1516 15.2 12ZM22 7.6V16.4C21.9983 17.8847 21.4078 19.3081 20.3579 20.3579C19.3081 21.4077 17.8847 21.9983 16.4 22H7.6C6.1153 21.9983 4.6919 21.4077 3.64206 20.3579C2.59222 19.3081 2.00168 17.8847 2 16.4V7.6C2.00168 6.1153 2.59222 4.6919 3.64206 3.64206C4.6919 2.59222 6.1153 2.00168 7.6 2H16.4C17.8847 2.00168 19.3081 2.59222 20.3579 3.64206C21.4078 4.6919 21.9983 6.1153 22 7.6ZM16.8 12C16.8 11.0506 16.5185 10.1226 15.9911 9.33326C15.4636 8.54391 14.714 7.92868 13.8369 7.56538C12.9598 7.20208 11.9947 7.10702 11.0636 7.29223C10.1325 7.47744 9.27718 7.93459 8.60589 8.60589C7.9346 9.27718 7.47744 10.1325 7.29223 11.0635C7.10702 11.9946 7.20208 12.9598 7.56538 13.8368C7.92868 14.7139 8.54391 15.4636 9.33326 15.991C10.1226 16.5185 11.0507 16.8 12 16.8C13.2726 16.7985 14.4927 16.2924 15.3925 15.3925C16.2924 14.4926 16.7986 13.2726 16.8 12ZM18.4 6.8C18.4 6.56266 18.3296 6.33065 18.1978 6.13331C18.0659 5.93598 17.8785 5.78217 17.6592 5.69134C17.4399 5.60052 17.1987 5.57675 16.9659 5.62306C16.7331 5.66936 16.5193 5.78365 16.3515 5.95147C16.1837 6.11929 16.0694 6.33311 16.0231 6.56589C15.9768 6.79867 16.0005 7.03995 16.0913 7.25922C16.1822 7.47849 16.336 7.66591 16.5333 7.79776C16.7307 7.92962 16.9627 8 17.2 8C17.5183 8 17.8235 7.87357 18.0485 7.64853C18.2736 7.42348 18.4 7.11826 18.4 6.8Z" fill="#2E2E2E"/>
</svg>
